<svg xmlns="http://www.w3.org/2000/svg" viewBox="0 0 200 200">
  <circle cx="100" cy="100" r="95" fill="#22c55e"/>
  <path d="M100 25c-8 0-15 2-22 5-7 3-13 7-18 12-5 5-10 11-13 18-3 7-5 14-5 22 0 4 0 8 1 12 1 4 2 8 4 11 2 4 4 7 7 10s6 6 10 8l5 3 3 2v8l-2 8-3 9c-1 3-2 5-2 7l15-8 15-8 4 1h8c8 0 15-2 22-5 7-3 13-7 18-12 5-5 10-11 13-18 3-7 5-14 5-22 0-8-2-15-5-22-3-7-8-13-13-18-5-5-11-9-18-12-7-3-14-5-22-5z" fill="none" stroke="#1a1a1a" stroke-width="4" stroke-linecap="round" stroke-linejoin="round"/>
  <g fill="none" stroke="#1a1a1a" stroke-width="4" stroke-linecap="round" stroke-linejoin="round">
    <path d="M95 115h30l5 25h-40z"/>
    <circle cx="97" cy="150" r="6"/>
    <circle cx="123" cy="150" r="6"/>
    <path d="M90 115l-5-30h-15"/>
    <path d="M85 95h40"/>
  </g>
</svg>
